<svg width="96" height="96" viewBox="0 0 96 96" fill="none" xmlns="http://www.w3.org/2000/svg">
  <rect width="96" height="96" rx="22" fill="none"/>
  <path d="M48 6C32 22 28 39 28 54V68L16 79C10 84 7 92 7 96H18L28 88V90C28 94 30 98 33 100L40 103H56L63 100C66 98 68 94 68 90V88L78 96H89C89 92 86 84 80 79L68 68V54C68 39 64 22 48 6Z" fill="#FF7A00"/>
  <circle cx="48" cy="30" r="13" fill="white"/>
  <circle cx="48" cy="30" r="7" fill="#FFB366"/>
  <path d="M39 72L42 84H54L57 72H39Z" fill="#FF7A00"/>
  <rect x="24" y="79" width="10" height="19" rx="5" fill="#FFA24D"/>
  <rect x="62" y="79" width="10" height="19" rx="5" fill="#FFA24D"/>
  <rect x="43" y="76" width="10" height="28" rx="5" fill="#FF9A3D"/>
</svg>
